<?xml version="1.0" encoding="utf-8"?>
<!-- Generator: Adobe Illustrator 22.1.0, SVG Export Plug-In . SVG Version: 6.00 Build 0)  -->
<svg version="1.1" id="Layer_1" xmlns="http://www.w3.org/2000/svg" xmlns:xlink="http://www.w3.org/1999/xlink" x="0px" y="0px"
	 viewBox="0 0 1200 1200" style="enable-background:new 0 0 1200 1200;" xml:space="preserve">
<style type="text/css">
	.st0{fill:#191919;}
	.st1{fill:#37DD10;}
	.st2{display:none;}
	.st3{display:inline;fill:#191919;}
	.st4{display:inline;}
	.st5{fill:#36C57F;}
</style>
<g id="Webdev">
	<circle class="st0" cx="600" cy="600" r="589.2"/>
	<g>
		<g>
			<polygon class="st1" points="396.3,357.9 197.3,600 396.3,842.1 443.3,764.7 309.3,600 443.3,435.3 			"/>
			<polygon class="st1" points="520.9,836.3 608.3,836.3 747.1,362.4 659.7,362.4 			"/>
			<polygon class="st1" points="803.7,357.9 756.7,435.3 890.7,600 756.7,764.7 803.7,842.1 1002.7,600 			"/>
		</g>
	</g>
</g>
<g id="Graphic_Design" class="st2">
	<circle class="st3" cx="600" cy="600" r="589.2"/>
	<g class="st4">
		<path class="st1" d="M886.4,551.4l-150-150c-4.2-4.2-12.7-6.3-19-6.3l-42.2,8.4l8.4-42.2c2.1-6.3,0-14.8-6.3-19l-31.7-29.6
			c-8.4-8.4-21.1-8.4-29.6,0L415.4,513.4c-16.9,16.9-16.9,44.4,0,61.3l44.4,44.4l-114.1,97.2c-44.4,38-50.7,101.4-16.9,143.6
			c19,21.1,46.5,33.8,73.9,33.8l0,0c29.6,0,59.1-12.7,78.2-35.9l99.3-116.2l44.4,44.4c16.9,16.9,44.4,16.9,61.3,0l200.7-200.7
			c4.2-4.2,6.3-8.4,6.3-14.8C892.8,564.1,890.6,555.6,886.4,551.4z M715.3,692.9L506.2,483.8l124.6-124.6l6.3,6.3l-12.7,63.4
			c-2.1,6.3,0,14.8,6.3,19c4.2,4.2,12.7,6.3,19,6.3l63.4-12.7l126.7,126.7L715.3,692.9z"/>
	</g>
</g>
<g id="Photography">
	<circle class="st0" cx="600" cy="600" r="589.2"/>
	<g>
		<path class="st5" d="M672.1,405.5l33.8,51.3l14,21.7h26h72.9c13.2,0,24.3,11.5,24.3,25.1v267.1c0,13.4-10.7,23.9-24.3,23.9H381.2
			c-13.4,0-24.3-10.9-24.3-24.3V503.1c0-13.6,10.9-24.7,24.3-24.7h72.9h26l14.4-21.7l34.2-51.3h144.2 M697.3,356.8H502.7l-48.6,72.9
			h-72.9c-40.3,0-72.9,33-72.9,73.3v267.1c0,40.3,32.6,72.9,72.9,72.9h437.7c40.3,0,72.9-32.3,72.9-72.6V503.5
			c0-40.3-32.6-73.7-72.9-73.7h-72.9L697.3,356.8L697.3,356.8z"/>
		<path class="st5" d="M600,551.4c40.2,0,72.9,32.7,72.9,72.9c0,40.2-32.7,72.9-72.9,72.9c-40.2,0-72.9-32.7-72.9-72.9
			C527.1,584.1,559.8,551.4,600,551.4 M600,502.7c-67.1,0-121.6,54.4-121.6,121.6S532.9,745.9,600,745.9
			c67.1,0,121.6-54.4,121.6-121.6S667.1,502.7,600,502.7L600,502.7z"/>
	</g>
</g>
</svg>
