<svg xmlns="http://www.w3.org/2000/svg" viewBox="0 0 1200 1200" width="1200" height="1200">
	<style>
		tspan { white-space:pre }
		.shp0 { fill: #0f0027 } 
		.shp1 { fill: #ffffff } 
	</style>
	<g id="Graphic_Design">
		<path id="Layer" class="shp0" d="M600 1189.2C274.17 1189.2 10.8 925.83 10.8 600C10.8 274.17 274.17 10.8 600 10.8C925.83 10.8 1189.2 274.17 1189.2 600C1189.2 925.83 925.83 1189.2 600 1189.2Z" />
		<g id="Layer">
			<path id="Layer" fill-rule="evenodd" class="shp1" d="M892.9 570.5C892.9 576.9 890.8 581.1 886.6 585.3L685.9 786C669 802.9 641.5 802.9 624.6 786L580.2 741.6L480.9 857.8C461.8 881 432.3 893.7 402.7 893.7C375.3 893.7 347.8 881 328.8 859.9C295 817.7 301.3 754.3 345.7 716.3L459.8 619.1L415.4 574.7C398.5 557.8 398.5 530.3 415.4 513.4L616 312.7C624.5 304.3 637.2 304.3 645.6 312.7L677.3 342.3C683.6 346.5 685.7 355 683.6 361.3L675.2 403.5L717.4 395.1C723.7 395.1 732.2 397.2 736.4 401.4L886.4 551.4C890.6 555.6 892.8 564.1 892.9 570.5ZM839.8 568.2L713.1 441.5L649.7 454.2C643.4 454.2 634.9 452.1 630.7 447.9C624.4 443.7 622.3 435.2 624.4 428.9L637.1 365.5L630.8 359.2L506.2 483.8L715.3 692.9L839.8 568.2Z" />
		</g>
	</g>
</svg>