<svg xmlns="http://www.w3.org/2000/svg" viewBox="0 0 1200 1200" width="1200" height="1200">
	<style>
		tspan { white-space:pre }
		.shp0 { fill: #0f0027 } 
		.shp1 { fill: #ffffff } 
	</style>
	<g id="Photography">
		<path id="Layer" class="shp0" d="M600 1189.2C274.17 1189.2 10.8 925.83 10.8 600C10.8 274.17 274.17 10.8 600 10.8C925.83 10.8 1189.2 274.17 1189.2 600C1189.2 925.83 925.83 1189.2 600 1189.2Z" />
		<g id="Layer">
			<path id="Layer" fill-rule="evenodd" class="shp1" d="M697.3 356.8L746 429.8L818.9 429.8C859.2 429.8 891.8 463.2 891.8 503.5L891.8 770.4C891.8 810.7 859.2 843 818.9 843L381.2 843C340.9 843 308.3 810.4 308.3 770.1L308.3 503C308.3 462.7 340.9 429.7 381.2 429.7L454.1 429.7L502.7 356.8L697.3 356.8ZM672.9 405.4L528.7 405.4L494.5 456.7L480.1 478.4L381.2 478.4C367.8 478.4 356.9 489.5 356.9 503.1L356.9 770.3C356.9 783.7 367.8 794.6 381.2 794.6L818.8 794.6C832.4 794.6 843.1 784.1 843.1 770.7L843.1 503.6C843.1 490 832 478.5 818.8 478.5L719.9 478.5L705.9 456.8L672.1 405.5L672.9 405.4Z" />
			<path id="Layer" fill-rule="evenodd" class="shp1" d="M600 502.7C667.1 502.7 721.6 557.1 721.6 624.3C721.6 691.5 667.1 745.9 600 745.9C532.9 745.9 478.4 691.5 478.4 624.3C478.4 557.1 532.9 502.7 600 502.7ZM527.1 624.3C527.1 664.5 559.8 697.2 600 697.2C640.2 697.2 672.9 664.5 672.9 624.3C672.9 584.1 640.2 551.4 600 551.4C559.8 551.4 527.1 584.1 527.1 624.3Z" />
		</g>
	</g>
</svg>